# xmcd CD database file
#
# Track frame offsets:
#	150
#	14291
#	26959
#	40926
#	57186
#	71587
#	85599
#	100307
#	114276
#	127158
#	139919
#	152793
#	167067
#	178434
#	190320
#	203344
#	218159
#	229798
#
# Disc length: 3213 seconds
#
# Revision: 2
# Processed by: cddbd v1.5.1PL0 Copyright (c) Steve Scherf et al.
# Submitted via: CDex 1.40Release
#
DISCID=fe0c8b12
DTITLE=Bumble Bee Slim - The Essential Bumble Bee Slim [CD1]
DYEAR=2002
DGENRE=Blues
TTITLE0=Bricks In My Pillow
TTITLE1=Policy Dream Blues
TTITLE2=Everybody's Fishing
TTITLE3=Chain Gang Bound
TTITLE4=Someday Things Will Be Breaking My Way
TTITLE5=Tell Me What It's All About
TTITLE6=DBA Blues
TTITLE7=Can't You Trust Me No More
TTITLE8=New B&O Blues
TTITLE9=Rambling With That Woman
TTITLE10=New Orleans Stop Time
TTITLE11=I Done Caught My Death Of Cold
TTITLE12=Let's Pitch A Boogie Woogie
TTITLE13=Back In Jail Again
TTITLE14=When The Music Sounds Good
TTITLE15=Steady Roll Mama Blues
TTITLE16=Sometimes
TTITLE17=Tiny's Boogie
EXTD=hale YEAR: 2002 ID3G: 0
EXTT0=
EXTT1=
EXTT2=
EXTT3=
EXTT4=
EXTT5=
EXTT6=
EXTT7=
EXTT8=
EXTT9=
EXTT10=
EXTT11=
EXTT12=
EXTT13=
EXTT14=
EXTT15=
EXTT16=
EXTT17=
PLAYORDER=
